<?xml version="1.0" encoding="UTF-8"?>
<svg xmlns="http://www.w3.org/2000/svg" xmlns:xlink="http://www.w3.org/1999/xlink" viewBox="0 0 64 64" width="512" height="512"><defs><linearGradient id="New_Gradient_Swatch" x1="19" y1="63.851" x2="19" y2="0.224" gradientUnits="userSpaceOnUse"><stop offset="0" stop-color="#e93e3a"/><stop offset="0.35" stop-color="#ed683c"/><stop offset="0.7" stop-color="#f3903f"/><stop offset="1" stop-color="#fdc70c"/></linearGradient><linearGradient id="New_Gradient_Swatch-2" x1="27" y1="63.851" x2="27" y2="0.224" xlink:href="#New_Gradient_Swatch"/><linearGradient id="New_Gradient_Swatch-3" x1="32" y1="63.851" x2="32" y2="0.224" xlink:href="#New_Gradient_Swatch"/><linearGradient id="New_Gradient_Swatch-4" x1="53" y1="63.851" x2="53" y2="0.224" xlink:href="#New_Gradient_Swatch"/><linearGradient id="New_Gradient_Swatch-5" x1="47" y1="63.851" x2="47" y2="0.224" xlink:href="#New_Gradient_Swatch"/></defs><g id="Barista-Coffee-Avatar-Occupation-Man"><circle cx="19" cy="18" r="2" style="fill:url(#New_Gradient_Swatch)"/><circle cx="27" cy="18" r="2" style="fill:url(#New_Gradient_Swatch-2)"/><path d="M56,44H43.77a8.918,8.918,0,0,0-6.08-6.7L28,34.27V30.79A11.028,11.028,0,0,0,33.95,22H34a4,4,0,0,0,0-8V6a1,1,0,0,0-1-1H30V3a1,1,0,0,0-1-1H19a7.008,7.008,0,0,0-7,7v5a4,4,0,1,0,0,8h.05A11.028,11.028,0,0,0,18,30.79v3.48L8.31,37.3A8.941,8.941,0,0,0,2,45.88V61a1,1,0,0,0,1,1H43a.978.978,0,0,0,.94-.71A6.987,6.987,0,0,0,47,62h2a7,7,0,0,0,6.92-6H56a6,6,0,0,0,0-12ZM34,16a2.006,2.006,0,0,1,2,2,2.015,2.015,0,0,1-2,2ZM12,20a2.015,2.015,0,0,1-2-2,2.006,2.006,0,0,1,2-2ZM9,60H4V45.88A6.964,6.964,0,0,1,8.91,39.2L9,39.18ZM28.59,36.54,26.8,40.15l-2.25-2.81,2.54-1.27ZM23,35.88l-3-1.5V31.57a10.68,10.68,0,0,0,6,0v2.81ZM32,21a8.967,8.967,0,0,1-1,4.1V22.21l1-2.34ZM29.71,7H32v3.18A3,3,0,0,0,31,10H27.89A7.065,7.065,0,0,0,29.71,7ZM14,9a5,5,0,0,1,5-5h9V5a5,5,0,0,1-5,5H15a3,3,0,0,0-1,.18Zm1,16.1A8.967,8.967,0,0,1,14,21V19.87l1,2.34ZM14,14.8V13a1,1,0,0,1,1-1H31a1,1,0,0,1,1,1v1.8L29.34,21H16.66Zm3,12.89V27h4V25H17V23H29v2H25v2h4v.69a8.947,8.947,0,0,1-12,0Zm1.91,8.38,2.54,1.27L19.2,40.15l-1.79-3.61ZM15,37.3l.48-.15,2.62,5.29a.991.991,0,0,0,.79.55A.41.41,0,0,0,19,43a1,1,0,0,0,.78-.38L23,38.6l3.22,4.02A1,1,0,0,0,27,43a.41.41,0,0,0,.11-.01.991.991,0,0,0,.79-.55l2.62-5.29.48.15V44H15Zm-4,1.25,2-.63V44H11ZM29,60H17V52H29Zm6,0H31V51a1,1,0,0,0-1-1H16a1,1,0,0,0-1,1v9H11V46H35Zm0-16H33V37.92l2,.63Zm7,16H37V39.18l.09.03A6.916,6.916,0,0,1,41.73,44H41a1,1,0,0,0-1,1V55a6.952,6.952,0,0,0,2,4.89Zm12-5a5,5,0,0,1-5,5H47a5,5,0,0,1-5-5V46H54Zm2-1V46a4,4,0,0,1,0,8Z" style="fill:url(#New_Gradient_Swatch-3)"/><path d="M52,42a8.476,8.476,0,0,1,1.832-5.445A10.5,10.5,0,0,0,56,30H54a8.476,8.476,0,0,1-1.832,5.445A10.5,10.5,0,0,0,50,42Z" style="fill:url(#New_Gradient_Swatch-4)"/><path d="M47.832,36.555A10.5,10.5,0,0,0,50,30H48a8.476,8.476,0,0,1-1.832,5.445A10.5,10.5,0,0,0,44,42h2A8.476,8.476,0,0,1,47.832,36.555Z" style="fill:url(#New_Gradient_Swatch-5)"/></g></svg>
