<svg height="512" viewBox="0 0 64 64" width="512" xmlns="http://www.w3.org/2000/svg" xmlns:xlink="http://www.w3.org/1999/xlink"><linearGradient id="New_Gradient_Swatch" gradientUnits="userSpaceOnUse" x1="19" x2="19" y1="64.78" y2=".691"><stop offset="0" stop-color="#e93e3a"/><stop offset=".35" stop-color="#ed683c"/><stop offset=".7" stop-color="#f3903f"/><stop offset="1" stop-color="#fdc70c"/></linearGradient><linearGradient id="New_Gradient_Swatch-2" x1="27" x2="27" xlink:href="#New_Gradient_Swatch" y1="64.78" y2=".691"/><linearGradient id="New_Gradient_Swatch-3" x1="23" x2="23" xlink:href="#New_Gradient_Swatch" y1="64.78" y2=".691"/><linearGradient id="New_Gradient_Swatch-4" x1="20" x2="20" xlink:href="#New_Gradient_Swatch" y1="64.78" y2=".691"/><linearGradient id="New_Gradient_Swatch-7" x1="54" x2="54" xlink:href="#New_Gradient_Swatch" y1="64.78" y2=".691"/><linearGradient id="New_Gradient_Swatch-8" x1="51" x2="51" xlink:href="#New_Gradient_Swatch" y1="64.78" y2=".691"/><g id="Chef-Avatar-Occupation-Woman-Cooker"><circle cx="19" cy="23" fill="url(#New_Gradient_Swatch)" r="2"/><circle cx="27" cy="23" fill="url(#New_Gradient_Swatch-2)" r="2"/><path d="m37.68 42.29-9.68-3.03v-3.47a11.028 11.028 0 0 0 5.95-8.79h.05a4 4 0 0 0 0-8v-9.54a4 4 0 1 0 -5-6.1 3.989 3.989 0 0 0 -6 0 3.989 3.989 0 0 0 -6 0 4 4 0 1 0 -5 6.1v9.54a4 4 0 1 0 0 8h.05a11.028 11.028 0 0 0 5.95 8.79v3.47l-9.68 3.03a8.959 8.959 0 0 0 -6.32 8.59v10.12a1 1 0 0 0 1 1h40a1 1 0 0 0 1-1v-10.12a8.959 8.959 0 0 0 -6.32-8.59zm-25.68-17.29a2.015 2.015 0 0 1 -2-2 2.006 2.006 0 0 1 2-2zm20 1a8.967 8.967 0 0 1 -1 4.1v-2.89l1-2.34zm0-9h-18v-2h18zm4 6a2.015 2.015 0 0 1 -2 2v-4a2.006 2.006 0 0 1 2 2zm-22.68-15.13a1.966 1.966 0 0 1 -1.32-1.87 2 2 0 0 1 4 0 1 1 0 0 0 2 0 2 2 0 0 1 4 0 1 1 0 0 0 2 0 2 2 0 0 1 4 0 1 1 0 0 0 2 0 2 2 0 0 1 4 0 1.966 1.966 0 0 1 -1.32 1.87 1 1 0 0 0 -.68.95v4.18h-2v-4h-2v4h-4v-4h-2v4h-4v-4h-2v4h-2v-4.18a1 1 0 0 0 -.68-.95zm1.68 22.23a8.967 8.967 0 0 1 -1-4.1v-1.13l1 2.34zm-1-10.3v-.8h18v.8l-2.66 6.2h-12.68zm3 12.89v-.69h4v-2h-4v-2h12v2h-4v2h4v.69a8.947 8.947 0 0 1 -12 0zm2.3 8.26a.987.987 0 0 0 .7-.95v-3.43a10.68 10.68 0 0 0 6 0v3.43a.987.987 0 0 0 .7.95l1.94.61c-.78.67-2.77 1.44-5.64 1.44s-4.86-.77-5.64-1.44zm-4.3 19.05h-3.03a4.846 4.846 0 0 0 -.79-2.36 6.723 6.723 0 0 1 -1.18-3.64 6.609 6.609 0 0 1 1.71-4.29l-1.42-1.42a8.723 8.723 0 0 0 -2.29 5.71 8.855 8.855 0 0 0 1.52 4.77 2.655 2.655 0 0 1 .45 1.23h-5.97v-9.12a6.964 6.964 0 0 1 4.91-6.68l6.09-1.9zm27 0h-5.97a2.655 2.655 0 0 1 .45-1.23 8.855 8.855 0 0 0 1.52-4.77 8.723 8.723 0 0 0 -2.29-5.71l-1.42 1.42a6.609 6.609 0 0 1 1.71 4.29 6.794 6.794 0 0 1 -1.17 3.64 4.756 4.756 0 0 0 -.8 2.36h-17.03v-16.27a13.159 13.159 0 0 0 6 1.27c3.32 0 6.66-.96 7.68-2.8l6.41 2a6.964 6.964 0 0 1 4.91 6.68z" fill="url(#New_Gradient_Swatch-3)"/><g fill="url(#New_Gradient_Swatch-4)"><path d="m19 48h2v2h-2z"/><path d="m19 52h2v2h-2z"/><path d="m19 56h2v2h-2z"/></g><path d="m61 24h-14a1 1 0 0 0 -1 1v36a1 1 0 0 0 1 1h4a1 1 0 0 0 1-1v-15h9a1 1 0 0 0 1-1v-20a1 1 0 0 0 -1-1zm-11 36h-2v-10h2zm0-12h-2v-2h2zm6-4h-8v-18h8zm4 0h-2v-18h2z" fill="url(#New_Gradient_Swatch-7)"/><path d="m50 28h2v2h-2z" fill="url(#New_Gradient_Swatch-8)"/></g></svg>