<?xml version="1.0" encoding="UTF-8"?>
<svg xmlns="http://www.w3.org/2000/svg" xmlns:xlink="http://www.w3.org/1999/xlink" viewBox="0 0 64 64" width="512" height="512"><defs><linearGradient id="New_Gradient_Swatch_1" x1="21" y1="-3.114" x2="21" y2="71.259" gradientUnits="userSpaceOnUse"><stop offset="0" stop-color="#fff33b"/><stop offset="0.014" stop-color="#fee72e"/><stop offset="0.042" stop-color="#fed51b"/><stop offset="0.07" stop-color="#fdca10"/><stop offset="0.1" stop-color="#fdc70c"/><stop offset="0.4" stop-color="#f3903f"/><stop offset="0.8" stop-color="#ed683c"/><stop offset="1" stop-color="#e93e3a"/></linearGradient><linearGradient id="New_Gradient_Swatch_1-2" x1="43" y1="-3.114" x2="43" y2="71.259" xlink:href="#New_Gradient_Swatch_1"/></defs><g id="Spoon-Fork-Tableware-Kitchen-Food"><path d="M24.22,36.855,25.789,7.047a4.8,4.8,0,1,0-9.578,0L17.78,36.855C14.3,38.752,12,43.517,12,49c0,7.168,4.038,13,9,13s9-5.832,9-13C30,43.517,27.7,38.752,24.22,36.855ZM21,60c-3.86,0-7-4.935-7-11,0-4.944,2.141-9.31,5.206-10.615a1,1,0,0,0,.606-.973l-1.6-30.471a2.8,2.8,0,1,1,5.584,0L22.187,37.412a1,1,0,0,0,.607.973C25.859,39.69,28,44.056,28,49,28,55.065,24.86,60,21,60Z" style="fill:url(#New_Gradient_Swatch_1)"/><path d="M46.233,36.606,47.789,7.047a4.8,4.8,0,1,0-9.578,0l1.556,29.559A9.036,9.036,0,0,0,34,45V61a1,1,0,0,0,1,1h2a1,1,0,0,0,.992-.876L39.883,46h.178L41,61.062A1,1,0,0,0,42,62h2a1,1,0,0,0,1-.938L45.939,46h.178l1.891,15.124A1,1,0,0,0,49,62h2a1,1,0,0,0,1-1V45A9.036,9.036,0,0,0,46.233,36.606ZM50,60h-.117L47.992,44.876A1,1,0,0,0,47,44H45a1,1,0,0,0-1,.938L43.061,60h-.122L42,44.938A1,1,0,0,0,41,44H39a1,1,0,0,0-.992.876L36.117,60H36V45a7.024,7.024,0,0,1,5.08-6.726A1,1,0,0,0,41.8,37.26l-1.6-30.319a2.774,2.774,0,0,1,.764-2.07,2.863,2.863,0,0,1,4.056,0,2.774,2.774,0,0,1,.764,2.07L44.2,37.26a1,1,0,0,0,.724,1.014A7.024,7.024,0,0,1,50,45Z" style="fill:url(#New_Gradient_Swatch_1-2)"/></g></svg>
